<svg width="1158" height="462" viewBox="0 0 1158 462" fill="none" xmlns="http://www.w3.org/2000/svg">
<path d="M179.889 99.6832C195.73 90.3818 206.68 79.4131 230.428 74.7624C254.176 70.1117 413.815 42.1489 413.815 42.1489C413.815 42.1489 434.207 36.299 463.644 58.4703C493.08 80.6416 557.499 151.602 575.701 149.145C593.903 146.688 602.862 121.211 597.202 109.57C591.542 97.9282 481.533 13.7766 462.506 8.27769C435.402 0.438752 400.249 1.28699 357.275 8.27769C314.3 15.2684 26.6776 76.7514 26.6776 76.7514" stroke="black" stroke-width="2" stroke-miterlimit="10"/>
<g style="mix-blend-mode:multiply">
<path d="M585.883 115.595C585.883 115.595 585.001 133.584 574.506 131.887C560.286 129.606 472.631 32.9352 443.195 37.5859C443.195 37.5859 467.483 45.5126 495.725 71.6327C514.183 88.7731 593.647 182.343 585.883 115.595Z" fill="black"/>
</g>
<path d="M793.786 193.282L1032.69 113.05C1032.69 113.05 1095.63 96.5828 1104.79 101.35C1113.95 106.118 1155.13 190.796 1155.13 200.215C1155.13 209.633 1148.24 241.164 1139.12 243.768C1132.49 245.64 1123.98 244.089 1119.66 231.453C1115.65 219.753 1100.21 138.673 1084.17 139.434C1068.13 140.194 939.972 186.087 939.972 186.087C939.972 186.087 902.202 204.924 886.19 219.051C870.178 233.179 808.746 248.301 808.746 248.301" stroke="black" stroke-width="2" stroke-miterlimit="10"/>
<g style="mix-blend-mode:multiply">
<path d="M809.969 194.043C809.969 194.043 1085.65 99.1566 1100.69 107.785C1100.69 107.785 1051.63 114.484 988.123 139.785C924.614 165.086 809.969 199.132 809.969 199.132V194.043Z" fill="black"/>
</g>
<g style="mix-blend-mode:multiply">
<path d="M1089.66 136.947C1092.69 137.154 1095.62 138.202 1098.12 139.978C1100.62 141.754 1102.61 144.194 1103.88 147.039C1108.77 157.13 1131.66 219.315 1131.66 219.315C1131.66 219.315 1133.83 233.94 1146.37 211.476C1146.37 211.476 1137.64 239.439 1131.12 231.336C1124.61 223.234 1103.34 154.322 1103.34 154.322C1103.34 154.322 1095.12 134.607 1089.66 136.947Z" fill="black"/>
</g>
<path d="M805.105 203.491C804.423 193.516 777.859 188.222 768.928 184.8C759.998 181.378 724.305 190.65 724.305 190.65C689.692 181.466 569.131 164.325 499.934 164.325C430.738 164.325 407.302 197.611 399.481 196.5C391.66 195.388 350.364 194.189 332.503 190.65C314.642 187.111 317.998 149.32 220.901 113.197C123.803 77.0731 26.6775 76.8684 26.6775 76.8684C-11.2626 90.4988 7.4515 130.951 7.4515 130.951L13.1397 149.525C25.4262 155.375 22.0701 180.325 26.5353 217.033C31.0006 253.742 47.7523 300.834 66.7223 329.528C85.6924 358.222 157.136 390.367 192.858 391.537C228.58 392.707 259.836 385.687 283.271 346.756C306.707 307.825 331.251 238.854 331.251 238.854L360.289 243.446C366.229 244.548 371.609 247.744 375.505 252.484C382.445 260.645 388.076 275.884 397.12 303.145C418.622 367.787 468.535 417.921 468.535 417.921C468.535 417.921 484.462 439.653 563.642 454.951C604.108 462.407 645.713 459.952 685.085 447.785C735.482 426.783 746.602 316.161 746.602 316.161C746.602 316.161 751.807 277.259 768.786 267.431C789.747 255.321 792.335 254.444 804.963 251.899C815.372 249.793 805.759 213.494 805.105 203.491ZM251.048 351.231C224.257 366.149 159.497 371.881 119.338 339.765C79.1795 307.649 60.1809 251.372 54.5781 184.741C48.9752 118.111 74.7711 110.944 74.7711 110.944C107.464 110.522 140.072 114.454 171.783 122.644C226.475 136.421 286.741 175.469 287.879 200.712C289.016 225.954 277.811 336.314 251.048 351.231ZM689.692 422.396C664.095 435.032 628.629 436.173 598.88 433.891C569.131 431.61 492.141 429.299 464.212 342.047C464.212 342.047 456.42 300.717 449.708 291.532C442.996 282.348 422.916 249.179 422.916 237.654C422.916 213.553 443.252 199.63 443.252 199.63C459.527 190.105 477.882 184.973 496.607 184.712C526.726 184.712 680.762 192.727 701.978 222.591C723.195 252.455 722.058 286.94 725.414 314.406C728.77 341.871 715.374 409.731 689.692 422.396Z" stroke="black" stroke-width="2" stroke-miterlimit="10"/>
<g style="mix-blend-mode:multiply">
<path d="M430.738 288.11C430.738 288.11 432.984 308.761 454.173 337.455L430.738 288.11Z" fill="black"/>
</g>
<g style="mix-blend-mode:multiply">
<path d="M386.626 213.553C386.626 213.553 367.172 240.024 375.505 243.095C383.838 246.166 386.626 213.553 386.626 213.553Z" fill="black"/>
</g>
<g style="mix-blend-mode:multiply">
<path d="M308.726 203.842C308.726 203.842 315.978 240.55 319.875 237.654C323.771 234.759 308.726 203.842 308.726 203.842Z" fill="black"/>
</g>
<g style="mix-blend-mode:multiply">
<path d="M268.112 354.361C268.112 354.361 298.345 313.733 320.501 245.61C320.501 245.61 281.252 331.137 268.112 354.361Z" fill="black"/>
</g>
<g style="mix-blend-mode:multiply">
<path d="M320.501 201.56C320.501 201.56 372.718 211.856 386.626 207.849L399.993 201.56C399.993 201.56 381.08 206.474 369.931 205.158C358.782 203.842 320.501 201.56 320.501 201.56Z" fill="black"/>
</g>
<g style="mix-blend-mode:multiply">
<path d="M767.819 224.433C767.819 224.433 771.232 214.722 773.707 224.433C776.181 234.144 773.707 255.906 773.707 255.906C773.707 255.906 768.957 261.054 767.819 255.906C766.682 250.758 767.819 224.433 767.819 224.433Z" fill="black"/>
</g>
<g style="mix-blend-mode:multiply">
<path d="M789.52 207.001C789.52 207.001 774.645 214.138 767.336 213.553C760.026 212.968 709.771 199.63 597.145 179.828C597.145 179.828 685.312 190.299 767.336 208.756C776.522 210.832 789.52 207.001 789.52 207.001Z" fill="black"/>
</g>
<g style="mix-blend-mode:multiply">
<path d="M308.726 192.814C297.201 166.175 276.345 144.976 250.308 133.437C229.259 124.364 207.755 116.446 185.89 109.716C172.504 105.412 158.898 101.867 145.134 99.0982C128.439 96.1732 69.4527 85.38 63.3095 85.9358C57.1662 86.4915 44.9651 87.9248 33.2759 88.3635C28.0854 88.6844 22.8808 88.6844 17.6902 88.3635C17.6902 88.3635 29.5501 94.2135 48.9752 91.0838C64.0774 88.6268 98.4909 94.0087 98.4909 94.0087C98.4909 94.0087 254.745 108.458 308.726 192.814Z" fill="black"/>
</g>
<path opacity="0.75" d="M40.0732 150.987C37.542 168.713 41.2109 260.44 72.5812 312.768C105.118 367.026 177.813 375.216 190.241 375.128C202.67 375.04 242.885 378.053 259.836 347.984C274.057 322.859 297.264 220.836 285.774 192.814C267.97 149.466 170.873 122.615 170.873 122.615C170.873 122.615 94.5091 106.615 74.6858 109.57C74.6858 109.54 46.3302 106.732 40.0732 150.987Z" stroke="black" stroke-width="2" stroke-miterlimit="10"/>
<path opacity="0.75" d="M412.649 237.801C412.649 237.801 409.549 209.867 468.28 188.983C501.726 177.107 640.233 198.43 640.233 198.43C640.233 198.43 694.527 210.335 701.978 222.678C709.43 235.022 728.884 273.105 725.556 333.828C722.285 392.941 704.737 412.217 689.692 422.484C689.692 422.484 669.499 436.904 628.999 439.829C553.204 445.328 523.768 436.494 497.631 417.219C412.649 354.361 412.649 237.801 412.649 237.801Z" stroke="black" stroke-width="2" stroke-miterlimit="10"/>
</svg>
