<svg width="232" height="56" viewBox="0 0 232 56" fill="none" xmlns="http://www.w3.org/2000/svg">
<path d="M0.34375 11.1612H-2.65625V14.1612H0.34375V11.1612ZM0.34375 0.454544V-2.54546H-2.65625V0.454544H0.34375ZM46.4464 0.454544H49.4464V-2.54546H46.4464V0.454544ZM46.4464 11.1612V14.1612H49.4464V11.1612H46.4464ZM29.907 11.1612V8.16122H26.907V11.1612H29.907ZM29.907 55V58H32.907V55H29.907ZM16.9098 55H13.9098V58H16.9098V55ZM16.9098 11.1612H19.9098V8.16122H16.9098V11.1612ZM3.34375 11.1612V0.454544H-2.65625V11.1612H3.34375ZM0.34375 3.45454H46.4464V-2.54546H0.34375V3.45454ZM43.4464 0.454544V11.1612H49.4464V0.454544H43.4464ZM46.4464 8.16122H29.907V14.1612H46.4464V8.16122ZM26.907 11.1612V55H32.907V11.1612H26.907ZM29.907 52H16.9098V58H29.907V52ZM19.9098 55V11.1612H13.9098V55H19.9098ZM16.9098 8.16122H0.34375V14.1612H16.9098V8.16122ZM51.8996 54.3874L50.6857 57.1309L50.7003 57.1373L50.7149 57.1436L51.8996 54.3874ZM47.1322 50.3924L44.6095 52.0159L44.6188 52.0305L44.6284 52.0449L47.1322 50.3924ZM46.5995 37.9013L43.9285 36.5354L43.9285 36.5354L46.5995 37.9013ZM49.9021 34.0927L51.6162 36.5548L51.6162 36.5548L49.9021 34.0927ZM54.7494 31.8821L55.5364 34.777L55.5494 34.7735L55.5624 34.7698L54.7494 31.8821ZM60.6088 30.8434L60.8642 33.8325L60.8733 33.8317L60.8824 33.8309L60.6088 30.8434ZM66.2284 30.1776L66.7096 33.1387L66.7276 33.1358L66.7456 33.1326L66.2284 30.1776ZM69.3179 29.1388L71.0291 31.603L71.0359 31.5982L71.0428 31.5934L69.3179 29.1388ZM68.8918 23.892L70.755 21.5408L70.755 21.5408L68.8918 23.892ZM60.9284 23.892L59.1886 21.448L59.1886 21.448L60.9284 23.892ZM58.9308 26.9815L58.8245 29.9796L61.3327 30.0686L61.8631 27.6155L58.9308 26.9815ZM46.9191 26.5554L43.9493 26.1311L43.4773 29.4352L46.8128 29.5535L46.9191 26.5554ZM49.6624 19.897L47.2702 18.0867L47.2676 18.0901L49.6624 19.897ZM55.7881 15.2628L56.9767 18.0173L56.9856 18.0134L55.7881 15.2628ZM72.4074 14.4904L71.5925 17.3776L71.6033 17.3807L71.6141 17.3836L72.4074 14.4904ZM78.1602 17.1538L76.4115 19.5914L76.4203 19.5977L76.4292 19.6039L78.1602 17.1538ZM81.9422 21.4151L79.2875 22.8124L79.2932 22.8233L79.299 22.8341L81.9422 21.4151ZM83.3005 55V58H86.3005V55H83.3005ZM71.0491 55H68.0491V58H71.0491V55ZM71.0491 49.3004H74.0491V46.3004H71.0491V49.3004ZM70.7295 49.3004V46.3004H68.9172L68.074 47.9046L70.7295 49.3004ZM67.933 52.8161L65.9984 50.5232L65.9895 50.5307L65.9806 50.5383L67.933 52.8161ZM63.9646 54.9734L63.066 52.1111L63.0564 52.1141L63.9646 54.9734ZM66.6546 46.3175L65.3129 43.6342L65.3044 43.6384L65.296 43.6427L66.6546 46.3175ZM69.3712 43.9737L71.8536 45.6582L71.8605 45.6481L71.8673 45.6378L69.3712 43.9737ZM70.3833 36.5696H73.3833V31.6115L68.9912 33.9121L70.3833 36.5696ZM69.0249 37.1023L68.1629 34.2288L68.1493 34.2329L68.1357 34.2371L69.0249 37.1023ZM65.4028 37.9279L65.883 40.8892L65.883 40.8892L65.4028 37.9279ZM63.5118 38.2209L63.0753 35.2528L63.0574 35.2554L63.0395 35.2583L63.5118 38.2209ZM60.3691 39.1264L59.0943 36.4107L59.0835 36.4158L59.0727 36.421L60.3691 39.1264ZM58.3982 40.7244L55.9436 38.9996L55.9388 39.0064L55.9341 39.0132L58.3982 40.7244ZM59.1705 46.1044L57.3849 48.5151L57.3954 48.5229L57.406 48.5306L59.1705 46.1044ZM58.8509 52.6925C56.5742 52.6925 54.6717 52.3135 53.0843 51.6312L50.7149 57.1436C53.1758 58.2014 55.9075 58.6925 58.8509 58.6925V52.6925ZM53.1135 51.644C51.6153 50.9811 50.481 50.0201 49.636 48.7399L44.6284 52.0449C46.1271 54.3158 48.1711 56.0182 50.6857 57.1309L53.1135 51.644ZM49.6549 48.7689C48.8855 47.5734 48.401 45.9292 48.401 43.6541H42.401C42.401 46.7768 43.0706 49.6248 44.6095 52.0159L49.6549 48.7689ZM48.401 43.6541C48.401 41.7208 48.742 40.3007 49.2706 39.2671L43.9285 36.5354C42.859 38.6268 42.401 41.042 42.401 43.6541H48.401ZM49.2706 39.2671C49.8516 38.1308 50.6287 37.2423 51.6162 36.5548L48.188 31.6306C46.3701 32.8962 44.9454 34.5467 43.9285 36.5354L49.2706 39.2671ZM51.6162 36.5548C52.7079 35.7947 54.0032 35.1938 55.5364 34.777L53.9624 28.9872C51.8379 29.5647 49.9016 30.4375 48.188 31.6306L51.6162 36.5548ZM55.5624 34.7698C57.1924 34.3109 58.9574 33.9955 60.8642 33.8325L60.3533 27.8543C58.1053 28.0464 55.9641 28.4235 53.9363 28.9944L55.5624 34.7698ZM60.8824 33.8309C63.2409 33.6148 65.1915 33.3854 66.7096 33.1387L65.7472 27.2164C64.4245 27.4313 62.6286 27.6458 60.3351 27.8559L60.8824 33.8309ZM66.7456 33.1326C68.2901 32.8623 69.8441 32.4259 71.0291 31.603L67.6067 26.6747C67.6067 26.6747 67.6061 26.6752 67.6048 26.676C67.6036 26.6768 67.6017 26.6781 67.5991 26.6797C67.5939 26.683 67.5862 26.6876 67.5757 26.6936C67.5546 26.7056 67.5237 26.722 67.4816 26.742C67.3962 26.7824 67.2748 26.8325 67.1101 26.8879C66.7761 27.0002 66.3176 27.1164 65.7113 27.2225L66.7456 33.1326ZM71.0428 31.5934C72.5357 30.5443 73.3034 28.9605 73.3034 27.1946H67.3034C67.3034 27.2109 67.3026 27.1051 67.3811 26.9503C67.4617 26.7911 67.5624 26.7058 67.5931 26.6843L71.0428 31.5934ZM73.3034 27.1946V27.0614H67.3034V27.1946H73.3034ZM73.3034 27.0614C73.3034 24.9217 72.5197 22.9392 70.755 21.5408L67.0285 26.2433C67.146 26.3363 67.3034 26.4668 67.3034 27.0614H73.3034ZM70.755 21.5408C69.1315 20.2543 67.1337 19.7734 65.0832 19.7734V25.7734C66.2287 25.7734 66.7699 26.0383 67.0285 26.2433L70.755 21.5408ZM65.0832 19.7734C62.9458 19.7734 60.8911 20.236 59.1886 21.448L62.6681 26.336C63.0607 26.0566 63.7759 25.7734 65.0832 25.7734V19.7734ZM59.1886 21.448C57.5021 22.6486 56.4328 24.3392 55.9986 26.3475L61.8631 27.6155C61.997 26.996 62.2594 26.627 62.6682 26.336L59.1886 21.448ZM59.0372 23.9834L47.0255 23.5573L46.8128 29.5535L58.8245 29.9796L59.0372 23.9834ZM49.889 26.9797C50.1743 24.9822 50.8972 23.2413 52.0571 21.704L47.2676 18.0901C45.4801 20.459 44.3742 23.157 43.9493 26.1311L49.889 26.9797ZM52.0546 21.7073C53.1909 20.2058 54.7917 18.9601 56.9767 18.0173L54.5995 12.5083C51.5998 13.8027 49.1168 15.6465 47.2702 18.0867L52.0546 21.7073ZM56.9856 18.0134C59.1267 17.0812 61.8315 16.5582 65.1897 16.5582V10.5582C61.2326 10.5582 57.6696 11.1716 54.5905 12.5122L56.9856 18.0134ZM65.1897 16.5582C67.5623 16.5582 69.6902 16.8407 71.5925 17.3776L73.2223 11.6032C70.7212 10.8973 68.0373 10.5582 65.1897 10.5582V16.5582ZM71.6141 17.3836C73.5189 17.9059 75.1033 18.6529 76.4115 19.5914L79.909 14.7161C77.9501 13.3109 75.6994 12.2823 73.2007 11.5972L71.6141 17.3836ZM76.4292 19.6039C77.6957 20.4987 78.6311 21.5653 79.2875 22.8124L84.597 20.0179C83.4778 17.8914 81.8919 16.117 79.8913 14.7036L76.4292 19.6039ZM79.299 22.8341C79.941 24.03 80.3005 25.4577 80.3005 27.1946H86.3005C86.3005 24.5992 85.7545 22.1739 84.5854 19.9961L79.299 22.8341ZM80.3005 27.1946V55H86.3005V27.1946H80.3005ZM83.3005 52H71.0491V58H83.3005V52ZM74.0491 55V49.3004H68.0491V55H74.0491ZM71.0491 46.3004H70.7295V52.3004H71.0491V46.3004ZM68.074 47.9046C67.5166 48.965 66.8235 49.827 65.9984 50.5232L69.8676 55.1089C71.3152 53.8875 72.4864 52.4057 73.385 50.6963L68.074 47.9046ZM65.9806 50.5383C65.1959 51.2109 64.2395 51.7427 63.066 52.1111L64.8632 57.8356C66.7436 57.2453 68.4329 56.3388 69.8853 55.0938L65.9806 50.5383ZM63.0564 52.1141C61.8927 52.4838 60.5022 52.6925 58.8509 52.6925V58.6925C60.9994 58.6925 63.018 58.4217 64.8728 57.8326L63.0564 52.1141ZM62.8726 50.1697C64.6911 50.1697 66.426 49.7984 68.0132 48.9922L65.296 43.6427C64.6459 43.9729 63.8595 44.1697 62.8726 44.1697V50.1697ZM67.9962 49.0008C69.5648 48.2165 70.8738 47.1022 71.8536 45.6582L66.8888 42.2892C66.5192 42.8339 66.0171 43.2821 65.3129 43.6342L67.9962 49.0008ZM71.8673 45.6378C72.9016 44.0864 73.3833 42.3235 73.3833 40.4581H67.3833C67.3833 41.2561 67.1902 41.8369 66.875 42.3096L71.8673 45.6378ZM73.3833 40.4581V36.5696H67.3833V40.4581H73.3833ZM68.9912 33.9121C68.8317 33.9957 68.567 34.1076 68.1629 34.2288L69.887 39.9758C70.5482 39.7774 71.1891 39.5341 71.7753 39.2271L68.9912 33.9121ZM68.1357 34.2371C67.7053 34.3707 67.212 34.5024 66.6519 34.6305L67.9889 40.4796C68.6717 40.3235 69.3148 40.1535 69.9141 39.9675L68.1357 34.2371ZM66.6519 34.6305C66.0955 34.7577 65.5192 34.8699 64.9226 34.9666L65.883 40.8892C66.6003 40.7729 67.3024 40.6365 67.9889 40.4796L66.6519 34.6305ZM64.9226 34.9666C64.2789 35.071 63.6632 35.1664 63.0753 35.2528L63.9483 41.189C64.5678 41.0979 65.2128 40.9979 65.883 40.8892L64.9226 34.9666ZM63.0395 35.2583C61.6127 35.4857 60.2804 35.854 59.0943 36.4107L61.6438 41.8421C62.1978 41.5821 62.9606 41.3466 63.9841 41.1835L63.0395 35.2583ZM59.0727 36.421C57.8391 37.012 56.7494 37.8529 55.9436 38.9996L60.8527 42.4493C60.9703 42.282 61.1944 42.0576 61.6654 41.8319L59.0727 36.421ZM55.9341 39.0132C55.0937 40.2234 54.7323 41.6046 54.7323 43.0149H60.7323C60.7323 42.6497 60.8149 42.5038 60.8623 42.4356L55.9341 39.0132ZM54.7323 43.0149C54.7323 45.1721 55.5543 47.1591 57.3849 48.5151L60.9562 43.6937C60.8578 43.6208 60.8295 43.5717 60.8116 43.5333C60.788 43.4825 60.7323 43.3334 60.7323 43.0149H54.7323ZM57.406 48.5306C59.0055 49.6939 60.8985 50.1697 62.8726 50.1697V44.1697C61.8638 44.1697 61.2887 43.9354 60.9351 43.6782L57.406 48.5306ZM99.8399 0.454544L102.709 -0.421529L102.061 -2.54546H99.8399V0.454544ZM112.038 40.4048L109.169 41.2809L109.817 43.4048H112.038V40.4048ZM112.491 40.4048V43.4048H114.712L115.36 41.2809L112.491 40.4048ZM124.689 0.454544V-2.54546H122.468L121.82 -0.421529L124.689 0.454544ZM139.444 0.454544L142.287 1.41363L143.622 -2.54546H139.444V0.454544ZM121.04 55V58H123.194L123.883 55.9591L121.04 55ZM103.489 55L100.646 55.9591L101.335 58H103.489V55ZM85.085 0.454544V-2.54546H80.9066L82.2424 1.41363L85.085 0.454544ZM96.9707 1.33062L109.169 41.2809L114.907 39.5288L102.709 -0.421529L96.9707 1.33062ZM112.038 43.4048H112.491V37.4048H112.038V43.4048ZM115.36 41.2809L127.558 1.33062L121.82 -0.421529L109.622 39.5288L115.36 41.2809ZM124.689 3.45454H139.444V-2.54546H124.689V3.45454ZM136.601 -0.504543L118.198 54.0409L123.883 55.9591L142.287 1.41363L136.601 -0.504543ZM121.04 52H103.489V58H121.04V52ZM106.331 54.0409L87.9275 -0.504543L82.2424 1.41363L100.646 55.9591L106.331 54.0409ZM85.085 3.45454H99.8399V-2.54546H85.085V3.45454ZM171.71 14.0909V11.0909H168.71V14.0909H171.71ZM184.708 14.0909H187.708V11.0909H184.708V14.0909ZM184.708 55V58H187.708V55H184.708ZM172.296 55H169.296V58H172.296V55ZM172.296 47.3828H175.296V44.3828H172.296V47.3828ZM171.87 47.3828V44.3828H169.765L169.049 46.3624L171.87 47.3828ZM167.236 53.3487L168.91 55.8386L168.914 55.8355L167.236 53.3487ZM152.028 53.6151L150.475 56.1818L150.475 56.1818L152.028 53.6151ZM147.101 48.2617L144.426 49.6198L144.43 49.6281L147.101 48.2617ZM145.317 40.1651H142.317V40.1737L142.317 40.1824L145.317 40.1651ZM145.317 14.0909V11.0909H142.317V14.0909H145.317ZM158.34 14.0909H161.34V11.0909H158.34V14.0909ZM158.34 37.6083H155.34V37.6203L155.341 37.6323L158.34 37.6083ZM160.098 42.8551L162.325 40.8448L162.325 40.8448L160.098 42.8551ZM168.301 43.9205L169.751 46.5472L169.758 46.543L169.766 46.5387L168.301 43.9205ZM170.778 41.3903L168.156 39.9333L168.152 39.9405L168.148 39.9478L170.778 41.3903ZM174.71 37.342V14.0909H168.71V37.342H174.71ZM171.71 17.0909H184.708V11.0909H171.71V17.0909ZM181.708 14.0909V55H187.708V14.0909H181.708ZM184.708 52H172.296V58H184.708V52ZM175.296 55V47.3828H169.296V55H175.296ZM172.296 44.3828H171.87V50.3828H172.296V44.3828ZM169.049 46.3624C168.357 48.2752 167.209 49.7476 165.558 50.8619L168.914 55.8355C171.631 54.0024 173.572 51.4975 174.691 48.4032L169.049 46.3624ZM165.563 50.8589C163.974 51.9269 161.963 52.5327 159.379 52.5327V58.5327C162.939 58.5327 166.166 57.6825 168.91 55.8386L165.563 50.8589ZM159.379 52.5327C157.067 52.5327 155.168 52.0081 153.581 51.0483L150.475 56.1818C153.115 57.7788 156.116 58.5327 159.379 58.5327V52.5327ZM153.581 51.0483C151.966 50.0708 150.701 48.7114 149.772 46.8953L144.43 49.6281C145.845 52.393 147.865 54.6025 150.475 56.1818L153.581 51.0483ZM149.776 46.9036C148.852 45.084 148.332 42.8607 148.317 40.1479L142.317 40.1824C142.337 43.6486 143.006 46.8229 144.426 49.6198L149.776 46.9036ZM148.317 40.1651V14.0909H142.317V40.1651H148.317ZM145.317 17.0909H158.34V11.0909H145.317V17.0909ZM155.34 14.0909V37.6083H161.34V14.0909H155.34ZM155.341 37.6323C155.362 40.3684 156.097 42.8994 157.871 44.8654L162.325 40.8448C161.792 40.254 161.354 39.2872 161.34 37.5843L155.341 37.6323ZM157.871 44.8654C159.685 46.8738 162.119 47.7727 164.812 47.7727V41.7727C163.528 41.7727 162.82 41.3933 162.325 40.8448L157.871 44.8654ZM164.812 47.7727C166.563 47.7727 168.233 47.3846 169.751 46.5472L166.852 41.2937C166.31 41.5927 165.655 41.7727 164.812 41.7727V47.7727ZM169.766 46.5387C171.328 45.665 172.547 44.4034 173.409 42.8328L168.148 39.9478C167.802 40.5789 167.37 41.004 166.837 41.3022L169.766 46.5387ZM173.401 42.8472C174.322 41.1897 174.71 39.3136 174.71 37.342H168.71C168.71 38.5308 168.478 39.3536 168.156 39.9333L173.401 42.8472ZM201.041 53.2422L199.591 55.8689L199.6 55.8739L199.609 55.8787L201.041 53.2422ZM193.903 45.9712L191.244 47.3605L191.249 47.3694L191.253 47.3783L193.903 45.9712ZM193.93 23.6257L196.582 25.0266L196.586 25.0205L193.93 23.6257ZM200.987 16.2216L202.491 18.8179L202.502 18.8113L200.987 16.2216ZM219.711 14.9165L220.764 12.1076L220.764 12.1076L219.711 14.9165ZM230.071 25.5167L227.261 26.568L227.264 26.5743L230.071 25.5167ZM231.536 37.6882V40.6882H234.536V37.6882H231.536ZM195.98 37.6882H192.98V40.6882H195.98V37.6882ZM195.98 30.1243V27.1243H192.98V30.1243H195.98ZM219.418 30.1243V33.1243H222.456L222.418 30.0858L219.418 30.1243ZM215.796 23.892L214.321 26.5045L214.346 26.5186L214.371 26.5321L215.796 23.892ZM208.072 23.9453L209.525 26.5697L209.541 26.5612L209.556 26.5525L208.072 23.9453ZM205.329 26.582L207.886 28.1497L207.892 28.1406L207.898 28.1315L205.329 26.582ZM204.263 30.3374L201.264 30.2614L201.263 30.2994V30.3374H204.263ZM205.249 42.429L202.588 43.8154L202.592 43.8232L202.596 43.8309L205.249 42.429ZM208.045 45.332L206.553 47.9344L206.553 47.9344L208.045 45.332ZM215.503 45.8913L216.467 48.732L216.467 48.732L215.503 45.8913ZM217.926 44.4798L219.959 46.6864L219.959 46.6864L217.926 44.4798ZM219.444 42.1893L219.531 39.1905L217.383 39.1283L216.633 41.1419L219.444 42.1893ZM231.403 42.5355L234.353 43.0825L234.991 39.6381L231.49 39.5368L231.403 42.5355ZM228.127 49.5401L225.839 47.5996L225.838 47.6014L228.127 49.5401ZM221.548 54.1477L222.66 56.9344L222.667 56.9313L222.675 56.9281L221.548 54.1477ZM212.12 52.7724C208.237 52.7724 205.056 52.0086 202.472 50.6056L199.609 55.8787C203.239 57.8493 207.446 58.7724 212.12 58.7724V52.7724ZM202.49 50.6155C199.915 49.1948 197.951 47.1971 196.552 44.5641L191.253 47.3783C193.193 51.0309 195.987 53.8805 199.591 55.8689L202.49 50.6155ZM196.562 44.582C195.179 41.9347 194.426 38.6767 194.426 34.7053H188.426C188.426 39.4341 189.325 43.6868 191.244 47.3605L196.562 44.582ZM194.426 34.7053C194.426 30.8788 195.179 27.6831 196.582 25.0266L191.277 22.2248C189.341 25.8893 188.426 30.08 188.426 34.7053H194.426ZM196.586 25.0205C197.998 22.3312 199.956 20.2851 202.491 18.8179L199.484 13.6253C195.946 15.6737 193.199 18.5637 191.273 22.2309L196.586 25.0205ZM202.502 18.8113C205.005 17.3473 208.042 16.5582 211.721 16.5582V10.5582C207.161 10.5582 203.042 11.5447 199.473 13.6319L202.502 18.8113ZM211.721 16.5582C214.319 16.5582 216.62 16.9615 218.657 17.7255L220.764 12.1076C217.972 11.0605 214.946 10.5582 211.721 10.5582V16.5582ZM218.657 17.7255C220.68 18.484 222.395 19.5913 223.838 21.0488L228.102 16.8276C226.029 14.734 223.571 13.1602 220.764 12.1076L218.657 17.7255ZM223.838 21.0488C225.265 22.4901 226.416 24.3089 227.261 26.568L232.881 24.4654C231.773 21.5043 230.19 18.9375 228.102 16.8276L223.838 21.0488ZM227.264 26.5743C228.089 28.7655 228.536 31.3702 228.536 34.4389H234.536C234.536 30.796 234.006 27.4526 232.879 24.4591L227.264 26.5743ZM228.536 34.4389V37.6882H234.536V34.4389H228.536ZM231.536 34.6882H195.98V40.6882H231.536V34.6882ZM198.98 37.6882V30.1243H192.98V37.6882H198.98ZM195.98 33.1243H219.418V27.1243H195.98V33.1243ZM222.418 30.0858C222.394 28.232 221.947 26.4759 221.016 24.8975L215.849 27.947C216.196 28.5348 216.406 29.2467 216.418 30.1627L222.418 30.0858ZM221.016 24.8975C220.096 23.3388 218.814 22.1121 217.22 21.252L214.371 26.5321C215.014 26.8794 215.49 27.3395 215.849 27.947L221.016 24.8975ZM217.27 21.2796C215.661 20.3708 213.87 19.9599 211.987 19.9599V25.9599C212.981 25.9599 213.729 26.1704 214.321 26.5045L217.27 21.2796ZM211.987 19.9599C210.062 19.9599 208.237 20.3994 206.588 21.3381L209.556 26.5525C210.215 26.1773 211 25.9599 211.987 25.9599V19.9599ZM206.618 21.3209C205.01 22.212 203.709 23.4595 202.76 25.0326L207.898 28.1315C208.298 27.4673 208.826 26.9571 209.525 26.5697L206.618 21.3209ZM202.771 25.0143C201.797 26.6036 201.312 28.3785 201.264 30.2614L207.262 30.4133C207.286 29.4908 207.511 28.7622 207.886 28.1497L202.771 25.0143ZM201.263 30.3374V38.0344H207.263V30.3374H201.263ZM201.263 38.0344C201.263 40.1022 201.672 42.0579 202.588 43.8154L207.909 41.0426C207.511 40.2787 207.263 39.3047 207.263 38.0344H201.263ZM202.596 43.8309C203.516 45.5703 204.848 46.9566 206.553 47.9344L209.538 42.7297C208.828 42.3226 208.296 41.7735 207.901 41.0271L202.596 43.8309ZM206.553 47.9344C208.297 48.9348 210.272 49.3707 212.36 49.3707V43.3707C211.11 43.3707 210.208 43.1142 209.538 42.7297L206.553 47.9344ZM212.36 49.3707C213.79 49.3707 215.17 49.1726 216.467 48.732L214.538 43.0507C213.953 43.2493 213.238 43.3707 212.36 43.3707V49.3707ZM216.467 48.732C217.771 48.2892 218.951 47.6143 219.959 46.6864L215.894 42.2731C215.552 42.5881 215.116 42.8543 214.538 43.0507L216.467 48.732ZM219.959 46.6864C220.999 45.728 221.763 44.5601 222.256 43.2366L216.633 41.1419C216.452 41.6295 216.203 41.9886 215.894 42.2731L219.959 46.6864ZM219.358 45.188L231.316 45.5343L231.49 39.5368L219.531 39.1905L219.358 45.188ZM228.453 41.9885C228.047 44.1798 227.172 46.0284 225.839 47.5996L230.415 51.4807C232.456 49.0746 233.765 46.2534 234.353 43.0825L228.453 41.9885ZM225.838 47.6014C224.522 49.1544 222.75 50.424 220.422 51.3673L222.675 56.9281C225.78 55.6698 228.393 53.8677 230.416 51.4789L225.838 47.6014ZM220.437 51.361C218.143 52.2759 215.39 52.7724 212.12 52.7724V58.7724C215.988 58.7724 219.521 58.1857 222.66 56.9344L220.437 51.361Z" fill="white"/>
</svg>
