<svg width="238" height="56" viewBox="0 0 238 56" fill="none" xmlns="http://www.w3.org/2000/svg">
<path d="M0.34375 11.1612H-0.65625V12.1612H0.34375V11.1612ZM0.34375 0.454544V-0.545456H-0.65625V0.454544H0.34375ZM46.4464 0.454544H47.4464V-0.545456H46.4464V0.454544ZM46.4464 11.1612V12.1612H47.4464V11.1612H46.4464ZM29.907 11.1612V10.1612H28.907V11.1612H29.907ZM29.907 55V56H30.907V55H29.907ZM16.9098 55H15.9098V56H16.9098V55ZM16.9098 11.1612H17.9098V10.1612H16.9098V11.1612ZM1.34375 11.1612V0.454544H-0.65625V11.1612H1.34375ZM0.34375 1.45454H46.4464V-0.545456H0.34375V1.45454ZM45.4464 0.454544V11.1612H47.4464V0.454544H45.4464ZM46.4464 10.1612H29.907V12.1612H46.4464V10.1612ZM28.907 11.1612V55H30.907V11.1612H28.907ZM29.907 54H16.9098V56H29.907V54ZM17.9098 55V11.1612H15.9098V55H17.9098ZM16.9098 10.1612H0.34375V12.1612H16.9098V10.1612ZM51.8996 54.3874L51.4949 55.302L51.5047 55.3062L51.8996 54.3874ZM47.1322 50.3924L46.2912 50.9336L46.2976 50.9432L47.1322 50.3924ZM46.5995 37.9013L45.7092 37.446L45.7092 37.446L46.5995 37.9013ZM49.9021 34.0927L50.4734 34.9134L50.4734 34.9134L49.9021 34.0927ZM54.7494 31.8821L55.0117 32.8471L55.0204 32.8447L54.7494 31.8821ZM60.6088 30.8434L60.6939 31.8398L60.7 31.8392L60.6088 30.8434ZM66.2284 30.1776L66.3888 31.1647L66.4008 31.1626L66.2284 30.1776ZM69.3179 29.1388L69.8883 29.9602L69.8929 29.957L69.3179 29.1388ZM68.8918 23.892L69.5129 23.1083L69.5129 23.1083L68.8918 23.892ZM60.9284 23.892L60.3484 23.0774L60.3484 23.0774L60.9284 23.892ZM58.9308 26.9815L58.8954 27.9809L59.7315 28.0106L59.9083 27.1929L58.9308 26.9815ZM46.9191 26.5554L45.9292 26.414L45.7718 27.5153L46.8837 27.5548L46.9191 26.5554ZM49.6624 19.897L48.865 19.2936L48.8641 19.2947L49.6624 19.897ZM55.7881 15.2628L56.1843 16.181L56.1873 16.1797L55.7881 15.2628ZM72.4074 14.4904L72.1358 15.4528L72.143 15.4548L72.4074 14.4904ZM78.1602 17.1538L77.5773 17.9663L77.5832 17.9705L78.1602 17.1538ZM81.9422 21.4151L81.0573 21.8809L81.0611 21.8881L81.9422 21.4151ZM83.3005 55V56H84.3005V55H83.3005ZM71.0491 55H70.0491V56H71.0491V55ZM71.0491 49.3004H72.0491V48.3004H71.0491V49.3004ZM70.7295 49.3004V48.3004H70.1254L69.8443 48.8351L70.7295 49.3004ZM67.933 52.8161L67.2881 52.0517L67.2822 52.0568L67.933 52.8161ZM63.9646 54.9734L63.665 54.0193L63.6618 54.0203L63.9646 54.9734ZM66.6546 46.3175L66.2073 45.423L66.2017 45.4259L66.6546 46.3175ZM69.3712 43.9737L70.1987 44.5352L70.2032 44.5284L69.3712 43.9737ZM70.3833 36.5696H71.3833V34.9169L69.9192 35.6838L70.3833 36.5696ZM69.0249 37.1023L68.7376 36.1444L68.7285 36.1472L69.0249 37.1023ZM65.4028 37.9279L65.5629 38.915L65.5629 38.915L65.4028 37.9279ZM63.5118 38.2209L63.3663 37.2314L63.3544 37.2334L63.5118 38.2209ZM60.3691 39.1264L59.9441 38.2212L59.9369 38.2246L60.3691 39.1264ZM58.3982 40.7244L57.58 40.1495L57.5768 40.154L58.3982 40.7244ZM59.1705 46.1044L58.5753 46.908L58.5824 46.9131L59.1705 46.1044ZM58.8509 54.6925C56.352 54.6925 54.173 54.2762 52.2945 53.4687L51.5047 55.3062C53.6744 56.2388 56.1298 56.6925 58.8509 56.6925V54.6925ZM52.3042 53.473C50.4672 52.6601 49.0297 51.452 47.9668 49.8416L46.2976 50.9432C47.5784 52.8839 49.3192 54.3392 51.495 55.3019L52.3042 53.473ZM47.9731 49.8512C46.9472 48.2572 46.401 46.2117 46.401 43.6541H44.401C44.401 46.4942 45.0089 48.941 46.2913 50.9336L47.9731 49.8512ZM46.401 43.6541C46.401 41.4945 46.781 39.7428 47.4899 38.3566L45.7092 37.446C44.82 39.1848 44.401 41.2683 44.401 43.6541H46.401ZM47.4899 38.3566C48.2162 36.9361 49.2091 35.7936 50.4734 34.9134L49.3307 33.272C47.7896 34.3449 46.5808 35.7414 45.7092 37.446L47.4899 38.3566ZM50.4734 34.9134C51.7725 34.009 53.2814 33.3174 55.0117 32.8471L54.4871 30.9171C52.5597 31.4411 50.8371 32.2233 49.3307 33.272L50.4734 34.9134ZM55.0204 32.8447C56.7829 32.3484 58.6734 32.0125 60.6939 31.8398L60.5236 29.847C58.3893 30.0294 56.3735 30.3859 54.4784 30.9195L55.0204 32.8447ZM60.7 31.8392C63.0368 31.6252 64.9358 31.4007 66.3888 31.1646L66.068 29.1905C64.6801 29.416 62.8327 29.6355 60.5175 29.8476L60.7 31.8392ZM66.4008 31.1626C67.8626 30.9068 69.0672 30.5305 69.8883 29.9602L68.7475 28.3175C68.2902 28.635 67.4351 28.9512 66.056 29.1925L66.4008 31.1626ZM69.8929 29.957C70.8285 29.2996 71.3034 28.3396 71.3034 27.1946H69.3034C69.3034 27.7186 69.1213 28.0548 68.743 28.3207L69.8929 29.957ZM71.3034 27.1946V27.0614H69.3034V27.1946H71.3034ZM71.3034 27.0614C71.3034 25.4367 70.7285 24.0716 69.5129 23.1083L68.2707 24.6758C68.9372 25.204 69.3034 25.9517 69.3034 27.0614H71.3034ZM69.5129 23.1083C68.3443 22.1823 66.832 21.7734 65.0832 21.7734V23.7734C66.5304 23.7734 67.5571 24.1103 68.2707 24.6758L69.5129 23.1083ZM65.0832 21.7734C63.2225 21.7734 61.6143 22.1762 60.3484 23.0774L61.5083 24.7067C62.3375 24.1164 63.4992 23.7734 65.0832 23.7734V21.7734ZM60.3484 23.0774C59.0879 23.9747 58.2876 25.2248 57.9534 26.7702L59.9083 27.1929C60.1423 26.1104 60.6737 25.3009 61.5083 24.7067L60.3484 23.0774ZM58.9663 25.9822L46.9546 25.556L46.8837 27.5548L58.8954 27.9809L58.9663 25.9822ZM47.9091 26.6968C48.2409 24.3738 49.0915 22.3139 50.4606 20.4993L48.8641 19.2947C47.2858 21.3864 46.3075 23.7654 45.9292 26.414L47.9091 26.6968ZM50.4598 20.5005C51.8329 18.686 53.7277 17.241 56.1843 16.1809L55.3919 14.3446C52.6638 15.5218 50.4748 17.1663 48.865 19.2936L50.4598 20.5005ZM56.1873 16.1797C58.641 15.1114 61.6319 14.5582 65.1897 14.5582V12.5582C61.4322 12.5582 58.1553 13.1415 55.3889 14.3459L56.1873 16.1797ZM65.1897 14.5582C67.7206 14.5582 70.0339 14.8595 72.1358 15.4528L72.679 13.528C70.3775 12.8784 67.879 12.5582 65.1897 12.5582V14.5582ZM72.143 15.4548C74.2457 16.0314 76.0523 16.8722 77.5773 17.9663L78.7432 16.3412C77.0012 15.0916 74.9725 14.1568 72.6718 13.526L72.143 15.4548ZM77.5832 17.9705C79.0944 19.0382 80.2466 20.3407 81.0573 21.8809L82.8271 20.9494C81.8622 19.116 80.4931 17.5776 78.7373 16.337L77.5832 17.9705ZM81.0611 21.8881C81.8788 23.4113 82.3005 25.1715 82.3005 27.1946H84.3005C84.3005 24.8853 83.8167 22.7926 82.8233 20.9421L81.0611 21.8881ZM82.3005 27.1946V55H84.3005V27.1946H82.3005ZM83.3005 54H71.0491V56H83.3005V54ZM72.0491 55V49.3004H70.0491V55H72.0491ZM71.0491 48.3004H70.7295V50.3004H71.0491V48.3004ZM69.8443 48.8351C69.1732 50.1119 68.3207 51.1805 67.2881 52.0518L68.5778 53.5803C69.818 52.534 70.8298 51.2588 71.6147 49.7657L69.8443 48.8351ZM67.2822 52.0568C66.2749 52.9202 65.0742 53.5769 63.665 54.0193L64.2641 55.9275C65.9089 55.4111 67.3539 54.6295 68.5838 53.5753L67.2822 52.0568ZM63.6618 54.0203C62.2678 54.4631 60.6679 54.6925 58.8509 54.6925V56.6925C60.8337 56.6925 62.6429 56.4424 64.2673 55.9264L63.6618 54.0203ZM62.8726 48.1697C64.4139 48.1697 65.8327 47.8566 67.1074 47.2091L66.2017 45.4259C65.2393 45.9147 64.1367 46.1697 62.8726 46.1697V48.1697ZM67.1018 47.2119C68.3822 46.5717 69.4222 45.6794 70.1987 44.5352L68.5437 43.4122C67.9707 44.2567 67.1996 44.9269 66.2074 45.423L67.1018 47.2119ZM70.2032 44.5284C70.9978 43.3366 71.3833 41.9677 71.3833 40.4581H69.3833C69.3833 41.6119 69.094 42.5867 68.5391 43.419L70.2032 44.5284ZM71.3833 40.4581V36.5696H69.3833V40.4581H71.3833ZM69.9192 35.6838C69.6175 35.8418 69.2274 35.9975 68.7376 36.1444L69.3123 38.0601C69.8878 37.8874 70.4033 37.688 70.8473 37.4554L69.9192 35.6838ZM68.7285 36.1472C68.2418 36.2983 67.6986 36.4428 67.0976 36.5802L67.5432 38.5299C68.1851 38.3832 68.7783 38.2259 69.3213 38.0573L68.7285 36.1472ZM67.0976 36.5802C66.4978 36.7173 65.8796 36.8375 65.2427 36.9408L65.5629 38.915C66.2399 38.8052 66.9001 38.6769 67.5432 38.5299L67.0976 36.5802ZM65.2427 36.9408C64.5902 37.0466 63.9647 37.1435 63.3663 37.2315L63.6573 39.2102C64.2663 39.1207 64.9015 39.0223 65.5629 38.915L65.2427 36.9408ZM63.3544 37.2334C62.062 37.4394 60.9195 37.7634 59.9441 38.2212L60.794 40.0317C61.5587 39.6727 62.5113 39.393 63.6692 39.2084L63.3544 37.2334ZM59.9369 38.2246C58.9576 38.6939 58.1563 39.3293 57.58 40.1495L59.2164 41.2994C59.5633 40.8056 60.076 40.3757 60.8012 40.0282L59.9369 38.2246ZM57.5768 40.154C57.0007 40.9836 56.7323 41.9529 56.7323 43.0149H58.7323C58.7323 42.3013 58.9078 41.7437 59.2195 41.2948L57.5768 40.154ZM56.7323 43.0149C56.7323 44.6336 57.3259 45.9825 58.5753 46.908L59.7658 45.3008C59.0975 44.8059 58.7323 44.0951 58.7323 43.0149H56.7323ZM58.5824 46.9131C59.7666 47.7744 61.2202 48.1697 62.8726 48.1697V46.1697C61.542 46.1697 60.5276 45.8549 59.7587 45.2957L58.5824 46.9131ZM99.8399 0.454544L100.796 0.16252L100.58 -0.545456H99.8399V0.454544ZM112.038 40.4048L111.082 40.6969L111.298 41.4048H112.038V40.4048ZM112.491 40.4048V41.4048H113.231L113.447 40.6969L112.491 40.4048ZM124.689 0.454544V-0.545456H123.949L123.733 0.16252L124.689 0.454544ZM139.444 0.454544L140.392 0.774239L140.837 -0.545456H139.444V0.454544ZM121.04 55V56H121.758L121.988 55.3197L121.04 55ZM103.489 55L102.541 55.3197L102.771 56H103.489V55ZM85.085 0.454544V-0.545456H83.6922L84.1374 0.774239L85.085 0.454544ZM98.8835 0.746568L111.082 40.6969L112.994 40.1128L100.796 0.16252L98.8835 0.746568ZM112.038 41.4048H112.491V39.4048H112.038V41.4048ZM113.447 40.6969L125.645 0.746568L123.733 0.16252L111.534 40.1128L113.447 40.6969ZM124.689 1.45454H139.444V-0.545456H124.689V1.45454ZM138.496 0.134848L120.093 54.6803L121.988 55.3197L140.392 0.774239L138.496 0.134848ZM121.04 54H103.489V56H121.04V54ZM104.436 54.6803L86.0325 0.134848L84.1374 0.774239L102.541 55.3197L104.436 54.6803ZM85.085 1.45454H99.8399V-0.545456H85.085V1.45454ZM178.316 0.454544V-0.545456H177.316V0.454544H178.316ZM191.473 0.454544H192.473V-0.545456H191.473V0.454544ZM188.57 46.2642L189.41 46.8062L189.411 46.804L188.57 46.2642ZM180.473 53.2422L180.9 54.1466L180.903 54.1448L180.473 53.2422ZM156.263 53.2422L155.833 54.1448L155.836 54.1466L156.263 53.2422ZM148.193 46.2642L147.349 46.8004L147.35 46.8027L148.193 46.2642ZM145.317 0.454544V-0.545456H144.317V0.454544H145.317ZM158.5 0.454544H159.5V-0.545456H158.5V0.454544ZM159.725 39.5259L158.851 40.0107L158.855 40.0187L159.725 39.5259ZM163.214 42.9883L163.703 42.1156L163.703 42.1156L163.214 42.9883ZM173.575 42.9883L173.087 42.1156L173.082 42.1181L173.575 42.9883ZM178.316 1.45454H191.473V-0.545456H178.316V1.45454ZM190.473 0.454544V35.6374H192.473V0.454544H190.473ZM190.473 35.6374C190.473 39.5385 189.546 42.8879 187.728 45.7244L189.411 46.804C191.463 43.6036 192.473 39.8685 192.473 35.6374H190.473ZM187.729 45.7222C185.902 48.5554 183.35 50.762 180.042 52.3396L180.903 54.1448C184.52 52.4198 187.366 49.9744 189.41 46.8062L187.729 45.7222ZM180.046 52.3378C176.741 53.8972 172.87 54.6925 168.408 54.6925V56.6925C173.108 56.6925 177.28 55.8542 180.9 54.1466L180.046 52.3378ZM168.408 54.6925C163.891 54.6925 159.994 53.8965 156.69 52.3378L155.836 54.1466C159.457 55.8549 163.657 56.6925 168.408 56.6925V54.6925ZM156.694 52.3396C153.386 50.7623 150.845 48.5567 149.036 45.7257L147.35 46.8027C149.377 49.9731 152.215 52.4195 155.833 54.1448L156.694 52.3396ZM149.037 45.728C147.235 42.891 146.317 39.5403 146.317 35.6374H144.317C144.317 39.8667 145.316 43.6005 147.349 46.8004L149.037 45.728ZM146.317 35.6374V0.454544H144.317V35.6374H146.317ZM145.317 1.45454H158.5V-0.545456H145.317V1.45454ZM157.5 0.454544V34.4922H159.5V0.454544H157.5ZM157.5 34.4922C157.5 36.5237 157.943 38.3719 158.851 40.0107L160.6 39.0412C159.875 37.7325 159.5 36.2249 159.5 34.4922H157.5ZM158.855 40.0187C159.781 41.6531 161.077 42.938 162.726 43.861L163.703 42.1156C162.369 41.3695 161.339 40.3462 160.596 39.0332L158.855 40.0187ZM162.726 43.861C164.388 44.791 166.293 45.2401 168.408 45.2401V43.2401C166.582 43.2401 165.023 42.8546 163.703 42.1156L162.726 43.861ZM168.408 45.2401C170.523 45.2401 172.421 44.7911 174.068 43.8585L173.082 42.1181C171.782 42.8545 170.235 43.2401 168.408 43.2401V45.2401ZM174.063 43.861C175.713 42.938 177.008 41.6531 177.934 40.0187L176.194 39.0332C175.45 40.3462 174.42 41.3695 173.087 42.1156L174.063 43.861ZM177.934 40.0187C178.863 38.3784 179.316 36.5273 179.316 34.4922H177.316C177.316 36.2212 176.934 37.726 176.194 39.0332L177.934 40.0187ZM179.316 34.4922V0.454544H177.316V34.4922H179.316ZM199.736 55H198.736V56H199.736V55ZM199.736 0.454544V-0.545456H198.736V0.454544H199.736ZM237.768 0.454544H238.768V-0.545456H237.768V0.454544ZM237.768 11.1612V12.1612H238.768V11.1612H237.768ZM212.919 11.1612V10.1612H211.919V11.1612H212.919ZM212.919 22.3473H211.919V23.3473H212.919V22.3473ZM235.824 22.3473H236.824V21.3473H235.824V22.3473ZM235.824 33.0806V34.0806H236.824V33.0806H235.824ZM212.919 33.0806V32.0806H211.919V33.0806H212.919ZM212.919 44.2933H211.919V45.2933H212.919V44.2933ZM237.768 44.2933H238.768V43.2933H237.768V44.2933ZM237.768 55V56H238.768V55H237.768ZM200.736 55V0.454544H198.736V55H200.736ZM199.736 1.45454H237.768V-0.545456H199.736V1.45454ZM236.768 0.454544V11.1612H238.768V0.454544H236.768ZM237.768 10.1612H212.919V12.1612H237.768V10.1612ZM211.919 11.1612V22.3473H213.919V11.1612H211.919ZM212.919 23.3473H235.824V21.3473H212.919V23.3473ZM234.824 22.3473V33.0806H236.824V22.3473H234.824ZM235.824 32.0806H212.919V34.0806H235.824V32.0806ZM211.919 33.0806V44.2933H213.919V33.0806H211.919ZM212.919 45.2933H237.768V43.2933H212.919V45.2933ZM236.768 44.2933V55H238.768V44.2933H236.768ZM237.768 54H199.736V56H237.768V54Z" fill="white"/>
</svg>
